# xmcd
#
# Track frame offsets: 
#        183
#        17860
#        47668
#        66013
#        101765
#        130530
#        142830
#        158843
#        174075
#        189080
#        207193
#        240235
#
# Disc length: 3514 seconds
#
# Revision: 5
# Processed by: cddbd v1.5.2PL0 Copyright (c) Steve Scherf et al.
# Submitted via: ExactAudioCopy v1.3
#
DISCID=8c0db80c
DTITLE=Bach, J. S. - Violin Concertos - Pinchas Zukerman
DYEAR=1991
DGENRE=Classical
TTITLE0=Concerto, BMV 1041 in A Minor - Allegro
TTITLE1=Concerto, BMV 1041 in A Minor - Andante
TTITLE2=Concerto, BMV 1041 in A Minor - Allegro assai
TTITLE3=Concerto, BMV 1042 in E Major - Allegro
TTITLE4=Concerto, BMV 1042 in E Major - Adagio
TTITLE5=Concerto, BMV 1042 in E Major - Allegro assai
TTITLE6=Concerto, BMV 1056 in G Minor - Allegro
TTITLE7=Concerto, BMV 1056 in G Minor - Largo
TTITLE8=Concerto, BMV 1056 in G Minor - Presto
TTITLE9=Double Concerto, BMV 1043 in D Minor - Vivace
TTITLE10=Double Concerto, BMV 1043 in D Minor - Largo ma non tanto
TTITLE11=Double Concerto, BMV 1043 in D Minor
EXTD=
EXTT0=
EXTT1=
EXTT2=
EXTT3=
EXTT4=
EXTT5=
EXTT6=
EXTT7=
EXTT8=
EXTT9=
EXTT10=
EXTT11=
PLAYORDER=
